<svg width="112" height="40" viewBox="0 0 112 40" fill="none" xmlns="http://www.w3.org/2000/svg">
<g clip-path="url(#clip0_92_36113)">
<path d="M12.4458 5H0.25V34.1667L12.4458 5Z" fill="#E6E6E6"/>
<path d="M21.0273 5H33.2073V34.1667L21.0273 5Z" fill="#E6E6E6"/>
<path d="M16.7355 15.75L24.4979 34.1669H19.4051L17.0851 28.3033H11.4043L16.7355 15.75Z" fill="#E6E6E6"/>
<path d="M53.1031 23.5474L54.5412 27.671C54.5889 27.7743 54.6604 27.8219 54.7875 27.8219H57.5524C57.7034 27.8219 57.7272 27.7504 57.7034 27.5995L51.9908 11.733C51.967 11.6059 51.9431 11.582 51.816 11.582H48.3837C48.2884 11.582 48.2328 11.6535 48.2328 11.7568C48.1851 12.5911 48.1136 12.8453 48.0103 13.0916L42.9174 27.5756C42.8936 27.7504 42.9492 27.8219 43.0922 27.8219H45.5632C45.7141 27.8219 45.7857 27.7743 45.8413 27.6233L47.1999 23.5474H53.1031ZM47.9865 20.854C48.7333 18.5976 49.7185 15.7056 50.1158 14.053H50.1396C50.6322 15.785 51.7922 19.2173 52.3166 20.854H47.9865Z" fill="#E6E6E6"/>
<path d="M65.047 28.0675C66.5327 28.0675 68.1138 27.7973 69.7188 27.1061C69.8459 27.0584 69.8697 27.0028 69.8697 26.8836C69.822 26.4387 69.7664 25.7952 69.7664 25.3026V10.3657C69.7664 10.2703 69.7664 10.2227 69.6473 10.2227H66.9539C66.8506 10.2227 66.8029 10.2703 66.8029 10.3975V15.4585C66.3818 15.4108 66.0878 15.387 65.7382 15.387C61.3922 15.387 58.7227 18.2552 58.7227 21.8385C58.7227 25.9938 61.4637 28.0675 65.047 28.0675ZM66.8029 25.3026C66.358 25.4456 65.8654 25.5012 65.3648 25.5012C63.3944 25.5012 61.7815 24.3889 61.7815 21.6875C61.7815 19.296 63.4421 17.8818 65.6429 17.8818C66.0878 17.8818 66.4771 17.9295 66.8029 18.0566V25.3026Z" fill="#E6E6E6"/>
<path d="M78.4616 15.3867C74.7512 15.3867 72.4551 18.2311 72.4551 21.7428C72.4551 24.8812 74.2825 28.0672 78.406 28.0672C81.8939 28.0672 84.341 25.5009 84.341 21.6634C84.341 18.2788 82.2673 15.3867 78.4616 15.3867ZM78.3107 17.8815C80.4082 17.8815 81.298 19.685 81.298 21.7428C81.298 24.2853 79.9871 25.5486 78.4616 25.5486C76.5786 25.5486 75.4663 23.9675 75.4663 21.6872C75.4663 19.3434 76.6501 17.8815 78.3107 17.8815Z" fill="#E6E6E6"/>
<path d="M87.126 10.2227C87.0227 10.2227 86.9512 10.2703 86.9512 10.3975V27.3047C86.9512 27.3763 87.0227 27.5034 87.126 27.5272C88.3098 27.8927 89.5492 28.0675 90.8284 28.0675C94.4911 28.0675 98.0505 25.7952 98.0505 21.2188C98.0505 17.9056 95.7782 15.387 92.2188 15.387C91.4005 15.387 90.6377 15.5141 89.9703 15.7366L89.9385 10.4213C89.9385 10.2465 89.8909 10.2227 89.7161 10.2227H87.126ZM95.0075 21.5207C95.0075 24.2617 93.1325 25.5489 91.1065 25.5489C90.6854 25.5489 90.312 25.525 89.9703 25.4217V18.2075C90.3596 18.0566 90.8284 17.9295 91.6944 17.9295C93.6489 17.9295 95.0075 19.1689 95.0075 21.5207Z" fill="#E6E6E6"/>
<path d="M108.103 22.4102C109.311 22.4102 110.304 22.3864 110.645 22.3069C110.772 22.2831 110.82 22.2354 110.844 22.1322C110.915 21.862 110.947 21.2979 110.947 20.6067C110.947 18.2549 109.533 15.3867 105.878 15.3867C102.144 15.3867 100.07 18.4297 100.07 21.862C100.07 24.905 101.675 28.0672 106.172 28.0672C107.857 28.0672 108.945 27.7971 109.883 27.3521C109.978 27.3044 110.026 27.225 110.026 27.082V25.0242C110.026 24.905 109.954 24.8812 109.883 24.9289C108.945 25.3261 107.928 25.5247 106.816 25.5247C104.297 25.5247 103.153 24.1343 103.082 22.4102H108.103ZM103.082 20.2809C103.28 19.0733 104.043 17.7623 105.751 17.7623C107.634 17.7623 108.127 19.3434 108.127 20.0585C108.127 20.0823 108.127 20.1856 108.127 20.2571C108.023 20.2809 107.706 20.2809 106.768 20.2809H103.082Z" fill="#E6E6E6"/>
</g>
<defs>
<clipPath id="clip0_92_36113">
<rect width="110.833" height="40" fill="white" transform="translate(0.25)"/>
</clipPath>
</defs>
</svg>
