<svg width="118" height="40" viewBox="0 0 118 40" fill="none" xmlns="http://www.w3.org/2000/svg">
<g clip-path="url(#clip0_92_36096)">
<path d="M18.2288 2.56561C8.56389 2.56561 0.728516 10.4008 0.728516 20.0657C0.728516 29.7311 8.56389 37.5656 18.2288 37.5656C27.8948 37.5656 35.7294 29.7311 35.7294 20.0657C35.7294 10.4014 27.8948 2.56645 18.2286 2.56645L18.2288 2.56561ZM26.2544 27.8058C25.9409 28.3199 25.268 28.4829 24.7539 28.1673C20.645 25.6575 15.4724 25.0891 9.38077 26.4809C8.79376 26.6146 8.20863 26.2468 8.07488 25.6596C7.94051 25.0724 8.30684 24.4872 8.89532 24.3535C15.5617 22.8305 21.2799 23.4862 25.8929 26.3053C26.4069 26.6209 26.5699 27.2917 26.2544 27.8058ZM28.3964 23.0407C28.0014 23.6827 27.1613 23.8854 26.5198 23.4904C21.8157 20.599 14.6451 19.7617 9.0811 21.4506C8.35951 21.6686 7.59737 21.2619 7.37836 20.5416C7.16103 19.82 7.5679 19.0593 8.28825 18.8399C14.6439 16.9114 22.545 17.8456 27.9471 21.1651C28.5886 21.5601 28.7914 22.4002 28.3964 23.0409V23.0407ZM28.5803 18.0788C22.94 14.7287 13.6343 14.4206 8.24917 16.055C7.38442 16.3173 6.46994 15.8291 6.20788 14.9644C5.94583 14.0992 6.43358 13.1854 7.29895 12.9225C13.4807 11.0459 23.7571 11.4085 30.2508 15.2634C31.0303 15.7251 31.2853 16.7296 30.8234 17.5064C30.3637 18.2842 29.3564 18.5406 28.5811 18.0788H28.5803ZM48.3411 18.7207C45.3193 18.0002 44.7822 17.4945 44.7822 16.4318C44.7822 15.4279 45.7268 14.7523 47.1332 14.7523C48.4958 14.7523 49.8458 15.2653 51.2626 16.3215C51.3044 16.3535 51.3587 16.3662 51.411 16.3578C51.4653 16.3499 51.5113 16.3209 51.5426 16.2772L53.018 14.1974C53.0786 14.1118 53.0619 13.9937 52.9804 13.9283C51.294 12.5756 49.3965 11.9179 47.1771 11.9179C43.915 11.9179 41.6351 13.8758 41.6351 16.6772C41.6351 19.6812 43.6015 20.7449 46.9995 21.566C49.8896 22.232 50.3786 22.7899 50.3786 23.7872C50.3786 24.8927 49.3923 25.5802 47.8041 25.5802C46.0403 25.5802 44.6004 24.9846 42.9913 23.5928C42.9516 23.5573 42.8973 23.5427 42.8471 23.5448C42.7928 23.5489 42.7447 23.574 42.7113 23.6137L41.0562 25.5823C40.9872 25.6659 40.9956 25.7871 41.075 25.8581C42.9474 27.5299 45.2504 28.4118 47.7372 28.4118C51.2522 28.4118 53.5237 26.4913 53.5237 23.5176C53.53 21.0084 52.0275 19.6187 48.3474 18.7235L48.3411 18.7207ZM61.4774 15.7407C59.954 15.7407 58.7043 16.3409 57.6719 17.5707V16.1865C57.6719 16.0772 57.5842 15.9882 57.4755 15.9882H54.7692C54.6606 15.9882 54.5728 16.0772 54.5728 16.1865V31.5674C54.5728 31.676 54.6606 31.7659 54.7692 31.7659H57.4755C57.5842 31.7659 57.6719 31.676 57.6719 31.5674V26.7128C58.7043 27.8685 59.954 28.4348 61.4774 28.4348C64.309 28.4348 67.1762 26.2552 67.1762 22.0884C67.1804 17.9208 64.3132 15.7405 61.4795 15.7405L61.4774 15.7407ZM64.029 22.0884C64.029 24.2093 62.7229 25.6909 60.8505 25.6909C59.001 25.6909 57.6051 24.1424 57.6051 22.0884C57.6051 20.0342 59.001 18.4861 60.8505 18.4861C62.6915 18.4859 64.029 20.0005 64.029 22.0882V22.0884ZM74.5217 15.7407C70.8751 15.7407 68.0184 18.5485 68.0184 22.1337C68.0184 25.6805 70.8563 28.4578 74.4778 28.4578C78.137 28.4578 81.0021 25.6596 81.0021 22.0884C81.0021 18.5293 78.1558 15.7412 74.5217 15.7412V15.7407ZM74.5217 25.7118C72.5824 25.7118 71.1196 24.1529 71.1196 22.0874C71.1196 20.0124 72.5323 18.5068 74.4778 18.5068C76.4297 18.5068 77.9009 20.0651 77.9009 22.1327C77.9009 24.2072 76.4798 25.7118 74.5217 25.7118ZM88.7886 15.9882H85.8106V12.9442C85.8106 12.8351 85.7229 12.7461 85.6142 12.7461H82.9079C82.7993 12.7461 82.7094 12.8351 82.7094 12.9442V15.9882H81.4096C81.3009 15.9882 81.2131 16.0772 81.2131 16.1865V18.5118C81.2131 18.6209 81.3009 18.7101 81.4096 18.7101H82.7094V24.7276C82.7094 27.158 83.9194 28.3909 86.308 28.3909C87.2776 28.3909 88.0822 28.1903 88.8408 27.7598C88.9035 27.7264 88.9411 27.6595 88.9411 27.5884V25.3733C88.9411 25.3064 88.9056 25.2416 88.8471 25.2061C88.7886 25.1685 88.7154 25.1664 88.6548 25.1978C88.1344 25.459 87.6308 25.5802 87.0666 25.5802C86.1993 25.5802 85.8106 25.1852 85.8106 24.3033V18.7111H88.7886C88.8972 18.7111 88.985 18.6221 88.985 18.5128V16.1877C88.9892 16.0784 88.9014 15.9894 88.7906 15.9894L88.7886 15.9882ZM99.1621 16.0001V15.6262C99.1621 14.5264 99.5843 14.0359 100.529 14.0359C101.093 14.0359 101.547 14.1479 102.054 14.3172C102.117 14.3368 102.182 14.327 102.232 14.2896C102.284 14.2522 102.314 14.1922 102.314 14.1287V11.8488C102.314 11.7616 102.259 11.6845 102.174 11.6588C101.639 11.4994 100.953 11.3357 99.9249 11.3357C97.4276 11.3357 96.1048 12.743 96.1048 15.4039V15.9765H94.805C94.6963 15.9765 94.6065 16.0655 94.6065 16.1746V18.5118C94.6065 18.6209 94.6963 18.7101 94.805 18.7101H96.1048V27.9897C96.1048 28.1004 96.1947 28.1882 96.3033 28.1882H99.0075C99.1183 28.1882 99.206 28.1004 99.206 27.9897V18.7107H101.733L105.603 27.9897C105.164 28.9635 104.731 29.1579 104.142 29.1579C103.666 29.1579 103.162 29.0158 102.65 28.7336C102.602 28.7086 102.543 28.7044 102.493 28.719C102.441 28.7378 102.397 28.7754 102.376 28.8256L101.459 30.838C101.415 30.9342 101.453 31.0449 101.544 31.0951C102.502 31.6133 103.365 31.8349 104.433 31.8349C106.43 31.8349 107.536 30.9028 108.508 28.3993L113.201 16.2709C113.226 16.2099 113.218 16.1409 113.18 16.0868C113.145 16.0331 113.084 16.0007 113.019 16.0007H110.202C110.117 16.0007 110.041 16.0544 110.014 16.1336L107.128 24.3744L103.969 16.1282C103.939 16.0515 103.866 16.0007 103.785 16.0007H99.1621V16.0001ZM93.1478 15.9882H90.4416C90.3329 15.9882 90.243 16.0772 90.243 16.1865V27.9897C90.243 28.1004 90.3329 28.1882 90.4416 28.1882H93.1478C93.2565 28.1882 93.3463 28.1004 93.3463 27.9897V16.1873C93.3463 16.078 93.2586 15.989 93.1478 15.989V15.9882ZM91.8103 10.6135C90.7383 10.6135 89.8689 11.4812 89.8689 12.553C89.8689 13.6255 90.7383 14.4942 91.8103 14.4942C92.8824 14.4942 93.7496 13.6255 93.7496 12.553C93.7496 11.4814 92.8803 10.6135 91.8103 10.6135ZM115.512 19.7834C114.443 19.7834 113.609 18.9235 113.609 17.8792C113.609 16.8349 114.453 15.9652 115.523 15.9652C116.593 15.9652 117.427 16.8249 117.427 17.8683C117.427 18.9126 116.582 19.7834 115.512 19.7834ZM115.523 16.1545C114.547 16.1545 113.809 16.9298 113.809 17.8792C113.809 18.8282 114.543 19.593 115.512 19.593C116.488 19.593 117.226 18.8183 117.226 17.8683C117.226 16.9194 116.493 16.1545 115.523 16.1545ZM115.945 18.0641L116.484 18.8181H116.029L115.544 18.1264H115.128V18.8181H114.748V16.8195H115.638C116.104 16.8195 116.409 17.0571 116.409 17.4571C116.411 17.7847 116.221 17.9849 115.947 18.0641H115.945ZM115.623 17.1624H115.128V17.7946H115.623C115.87 17.7946 116.018 17.6736 116.018 17.4782C116.018 17.2725 115.87 17.1624 115.623 17.1624Z" fill="#E6E6E6"/>
</g>
<defs>
<clipPath id="clip0_92_36096">
<rect width="116.667" height="40" fill="white" transform="translate(0.666504)"/>
</clipPath>
</defs>
</svg>
