<svg width="102" height="40" viewBox="0 0 102 40" fill="none" xmlns="http://www.w3.org/2000/svg">
<g clip-path="url(#clip0_92_36102)">
<path d="M32.5204 27.0245L33.7439 24.1649C35.0834 25.1569 36.8306 25.682 38.5783 25.682C39.8598 25.682 40.6751 25.1862 40.6751 24.4277C40.6459 22.3266 32.9573 23.9607 32.8989 18.6785C32.8696 15.994 35.258 13.9222 38.6368 13.9222C40.6459 13.9222 42.6558 14.4184 44.0827 15.5566L42.9394 18.4772C41.6266 17.633 40.0051 17.0445 38.4617 17.0445C37.4133 17.0445 36.7141 17.5403 36.7141 18.1827C36.7433 20.2545 44.4908 19.1162 44.5781 24.1649C44.5781 26.9079 42.2477 28.8339 38.9275 28.8339C36.4814 28.8339 34.2388 28.2504 32.52 27.0245H32.5204ZM81.2355 23.1295C80.9267 23.6782 80.4775 24.1348 79.9339 24.4527C79.3904 24.7705 78.7721 24.938 78.1425 24.9381C76.1801 24.9381 74.5895 23.3441 74.5895 21.3781C74.5895 19.412 76.1801 17.818 78.1425 17.818C78.7721 17.8181 79.3904 17.9856 79.9339 18.3034C80.4775 18.6213 80.9267 19.078 81.2355 19.6267L84.6368 17.7387C83.3628 15.4618 80.9327 13.9222 78.1425 13.9222C74.0327 13.9222 70.7012 17.26 70.7012 21.3781C70.7012 25.4957 74.0327 28.8339 78.1425 28.8339C80.9327 28.8339 83.3628 27.2943 84.6368 25.0174L81.2355 23.1295ZM46.7852 28.542H51.0373V7.71564H46.7856L46.7852 28.542ZM86.7842 7.71564V28.542H91.0363V22.3024L96.075 28.542H101.51L95.1026 21.1295L101.044 14.2129H95.8419L91.0363 19.9633V7.71564H86.7842ZM64.1375 14.2137V15.9067C63.4387 14.7392 61.7203 13.9222 59.9146 13.9222C56.1867 13.9222 53.2453 17.2199 53.2453 21.3634C53.2453 25.507 56.1867 28.8339 59.9146 28.8339C61.7203 28.8339 63.4387 28.0169 64.1375 26.8495V28.542H68.3897V14.2137H64.1375ZM64.1375 23.1583C63.526 24.1795 62.2445 24.9377 60.8177 24.9377C58.8549 24.9377 57.2643 23.3441 57.2643 21.3781C57.2643 19.412 58.8549 17.818 60.8177 17.818C62.2445 17.818 63.526 18.6058 64.1375 19.6559V23.1583Z" fill="#E6E6E6"/>
<path d="M10.0649 7.25311C8.6869 7.25311 7.56998 8.37254 7.56998 9.75302C7.56965 10.081 7.63393 10.4058 7.75913 10.7089C7.88433 11.0121 8.06801 11.2876 8.29968 11.5197C8.53136 11.7518 8.80648 11.9361 9.10936 12.0619C9.41223 12.1877 9.73692 12.2526 10.0649 12.2529H12.5602V9.75302C12.5608 9.09063 12.2982 8.45514 11.8302 7.98633C11.3623 7.51752 10.7273 7.25378 10.0649 7.25311ZM10.0649 13.9195H3.4114C2.03342 13.9195 0.916504 15.039 0.916504 16.4199C0.916504 17.8004 2.03342 18.9198 3.4114 18.9198H10.0653C11.4429 18.9198 12.5602 17.8004 12.5602 16.4199C12.5602 15.039 11.4429 13.9195 10.0649 13.9195Z" fill="#E6E6E6"/>
<path d="M25.8668 16.4199C25.8668 15.039 24.7495 13.9195 23.3715 13.9195C21.9935 13.9195 20.8766 15.039 20.8766 16.4199V18.9198H23.3715C24.0339 18.9191 24.6689 18.6554 25.1369 18.1866C25.6048 17.7177 25.8674 17.0823 25.8668 16.4199ZM19.2134 16.4199V9.75302C19.2139 9.09063 18.9513 8.45514 18.4834 7.98633C18.0154 7.51752 17.3804 7.25378 16.718 7.25311C15.3401 7.25311 14.2231 8.37254 14.2231 9.75302V16.4194C14.2231 17.8008 15.3401 18.9202 16.718 18.9202C17.3804 18.9195 18.0154 18.6558 18.4834 18.187C18.9513 17.7182 19.2139 17.0827 19.2134 16.4203" fill="#E6E6E6"/>
<path d="M16.718 32.2542C17.3804 32.2535 18.0154 31.9898 18.4834 31.5209C18.9513 31.0521 19.2139 30.4166 19.2134 29.7542C19.2139 29.0919 18.9513 28.4564 18.4834 27.9876C18.0154 27.5187 17.3804 27.255 16.718 27.2543H14.2231V29.7542C14.2231 31.1347 15.3401 32.2542 16.718 32.2542ZM16.718 25.5877H23.3719C24.7495 25.5877 25.8668 24.4683 25.8668 23.0874C25.8674 22.425 25.6048 21.7895 25.1369 21.3207C24.6689 20.8519 24.0339 20.5882 23.3715 20.5875H16.718C15.3401 20.5875 14.2231 21.7069 14.2231 23.0874C14.2228 23.4154 14.2871 23.7402 14.4123 24.0433C14.5375 24.3464 14.7212 24.6219 14.9528 24.8541C15.1845 25.0862 15.4596 25.2704 15.7625 25.3963C16.0654 25.5221 16.3901 25.587 16.718 25.5873" fill="#E6E6E6"/>
<path d="M0.916505 23.0874C0.916176 23.4154 0.980447 23.7402 1.10565 24.0433C1.23085 24.3464 1.41453 24.6219 1.64621 24.8541C1.87788 25.0862 2.15301 25.2704 2.45588 25.3963C2.75875 25.5221 3.08344 25.587 3.4114 25.5873C4.07379 25.5867 4.7088 25.3229 5.17675 24.8541C5.6447 24.3853 5.90727 23.7498 5.90672 23.0874V20.5875H3.4114C2.03342 20.5875 0.916505 21.7069 0.916505 23.0874ZM7.56998 23.0874V29.7538C7.56998 31.1347 8.6869 32.2542 10.0649 32.2542C10.7273 32.2535 11.3623 31.9898 11.8302 31.5209C12.2982 31.0521 12.5608 30.4166 12.5602 29.7542V23.0874C12.5605 22.7594 12.4962 22.4346 12.371 22.1314C12.2458 21.8282 12.0621 21.5527 11.8304 21.3206C11.5986 21.0884 11.3235 20.9042 11.0205 20.7784C10.7176 20.6527 10.3929 20.5878 10.0649 20.5875C8.6869 20.5875 7.56998 21.7069 7.56998 23.0874Z" fill="#E6E6E6"/>
</g>
<defs>
<clipPath id="clip0_92_36102">
<rect width="100.833" height="40" fill="white" transform="translate(0.916504)"/>
</clipPath>
</defs>
</svg>
