<svg width="13" height="14" viewBox="0 0 13 14" fill="none" xmlns="http://www.w3.org/2000/svg">
<path d="M1.66443 0.785571C1.28367 0.40481 0.666332 0.40481 0.285571 0.785571C-0.0951903 1.16633 -0.0951903 1.78367 0.285571 2.16443L5.12114 7L0.285571 11.8356C-0.0951903 12.2163 -0.0951903 12.8337 0.285571 13.2144C0.666332 13.5952 1.28367 13.5952 1.66443 13.2144L6.5 8.37886L11.3356 13.2144C11.7163 13.5952 12.3337 13.5952 12.7144 13.2144C13.0952 12.8337 13.0952 12.2163 12.7144 11.8356L7.87886 7L12.7144 2.16443C13.0952 1.78367 13.0952 1.16633 12.7144 0.785571C12.3337 0.40481 11.7163 0.40481 11.3356 0.785571L6.5 5.62114L1.66443 0.785571Z" fill="#7266FF"/>
</svg>
