<svg width="17" height="16" viewBox="0 0 17 16" fill="none" xmlns="http://www.w3.org/2000/svg">
<path d="M9.47422 1.17501C9.47422 0.636535 9.0377 0.200012 8.49922 0.200012C7.96074 0.200012 7.52422 0.636535 7.52422 1.17501V7.02501H1.67422C1.13574 7.02501 0.699219 7.46153 0.699219 8.00001C0.699219 8.53849 1.13574 8.97501 1.67422 8.97501L7.52422 8.97501V14.825C7.52422 15.3635 7.96074 15.8 8.49922 15.8C9.0377 15.8 9.47422 15.3635 9.47422 14.825V8.97501H15.3242C15.8627 8.97501 16.2992 8.53849 16.2992 8.00001C16.2992 7.46154 15.8627 7.02501 15.3242 7.02501H9.47422V1.17501Z" fill="white"/>
</svg>
