<svg width="22" height="22" viewBox="0 0 22 22" fill="none" xmlns="http://www.w3.org/2000/svg">
<path d="M12.2758 2.07505C12.2758 1.37089 11.7049 0.800049 11.0008 0.800049C10.2966 0.800049 9.72578 1.37089 9.72578 2.07505V9.72505H2.07578C1.37162 9.72505 0.800781 10.2959 0.800781 11C0.800781 11.7042 1.37162 12.275 2.07578 12.275L9.72578 12.275V19.925C9.72578 20.6292 10.2966 21.2 11.0008 21.2C11.7049 21.2 12.2758 20.6292 12.2758 19.925V12.275L19.9258 12.2751C20.6299 12.2751 21.2008 11.7042 21.2008 11C21.2008 10.2959 20.6299 9.72505 19.9258 9.72505H12.2758V2.07505Z" fill="white"/>
</svg>
