<svg width="16" height="16" viewBox="0 0 16 16" fill="none" xmlns="http://www.w3.org/2000/svg">
<path d="M8.97422 1.17495C8.97422 0.636474 8.5377 0.199951 7.99922 0.199951C7.46074 0.199951 7.02422 0.636474 7.02422 1.17495V7.02495H1.17422C0.635741 7.02495 0.199219 7.46147 0.199219 7.99995C0.199219 8.53843 0.635741 8.97495 1.17422 8.97495L7.02422 8.97495V14.825C7.02422 15.3634 7.46074 15.8 7.99922 15.8C8.5377 15.8 8.97422 15.3634 8.97422 14.825V8.97495H14.8242C15.3627 8.97495 15.7992 8.53843 15.7992 7.99995C15.7992 7.46147 15.3627 7.02495 14.8242 7.02495H8.97422V1.17495Z" fill="white"/>
</svg>
