<svg width="83" height="40" viewBox="0 0 83 40" fill="none" xmlns="http://www.w3.org/2000/svg">
<g clip-path="url(#clip0_92_36099)">
<path fill-rule="evenodd" clip-rule="evenodd" d="M67.2562 17.1665C67.568 17.7045 67.6701 18.3166 67.7038 19.0048L67.748 19.922V26.336L67.7933 27.2542C67.8837 28.7538 68.9896 29.8625 70.5007 29.9569L71.4141 30.0021V19.922L71.4594 19.0048C71.4969 18.3243 71.598 17.7006 71.9146 17.1588C72.2373 16.603 72.7005 16.1418 73.2577 15.8217C73.815 15.5015 74.4466 15.3336 75.0893 15.3347C75.732 15.3359 76.363 15.5061 76.9191 15.8283C77.4752 16.1505 77.9367 16.6133 78.2573 17.1703C78.5692 17.7083 78.6664 18.332 78.7039 19.0048L78.7492 19.9192V26.336L78.7944 27.2542C78.8887 28.7615 79.986 29.8702 81.5019 29.9569L82.4153 30.0021V19.0048C82.4153 17.0602 81.643 15.1951 80.2682 13.8198C78.8934 12.4445 77.0287 11.6715 75.0841 11.6707C74.0432 11.6696 73.0142 11.8906 72.0656 12.319C71.117 12.7474 70.2708 13.3733 69.5835 14.1549C68.8958 13.3736 68.0496 12.7479 67.1011 12.3193C66.1526 11.8908 65.1237 11.6694 64.0829 11.6697C62.5603 11.6697 61.1473 12.1317 59.977 12.9296C59.2628 12.1327 57.6651 11.6697 56.7478 11.6697V30.0021L57.6651 29.9569C59.1993 29.8558 60.3081 28.7769 60.3677 27.2542L60.4168 26.336V19.922L60.462 19.0048C60.5005 18.3128 60.5968 17.7045 60.9096 17.1626C61.2325 16.6072 61.6955 16.1461 62.2524 15.8256C62.8092 15.505 63.4404 15.3361 64.0829 15.3358C64.7259 15.336 65.3576 15.5052 65.9145 15.8265C66.4715 16.1478 66.9342 16.6099 67.2562 17.1665ZM4.49958 29.9578L5.41683 30.0021H19.1659L19.1206 29.0877C18.9965 27.5805 17.9291 26.4794 16.417 26.3812L15.4998 26.336H7.25132L18.2486 15.3349L18.2034 14.4215C18.1322 12.8988 17.0195 11.7987 15.4998 11.715L14.5825 11.6736L0.833496 11.6697L0.878733 12.587C0.999043 14.0798 2.08183 15.204 3.58138 15.2906L4.49958 15.3358H12.748L1.75074 26.337L1.79598 27.2542C1.88645 28.7653 2.97694 29.8597 4.49958 29.9569V29.9578ZM53.1491 14.3531C54.0004 15.2043 54.6758 16.2148 55.1365 17.3269C55.5972 18.4391 55.8344 19.6311 55.8344 20.835C55.8344 22.0388 55.5972 23.2308 55.1365 24.343C54.6758 25.4551 54.0004 26.4656 53.1491 27.3168C51.4292 29.0353 49.0973 30.0007 46.6659 30.0007C44.2345 30.0007 41.9025 29.0353 40.1826 27.3168C36.6031 23.7373 36.6031 17.9326 40.1826 14.3531C41.0331 13.5023 42.0429 12.8273 43.1544 12.3667C44.2658 11.9061 45.457 11.669 46.6601 11.6688C47.8651 11.6679 49.0585 11.9047 50.1719 12.3654C51.2854 12.8262 52.2971 13.502 53.1491 14.3541V14.3531ZM50.5552 16.9489C51.5863 17.9807 52.1654 19.3797 52.1654 20.8383C52.1654 22.297 51.5863 23.6959 50.5552 24.7277C49.5234 25.7587 48.1245 26.3379 46.6659 26.3379C45.2072 26.3379 43.8083 25.7587 42.7765 24.7277C41.7455 23.6959 41.1663 22.297 41.1663 20.8383C41.1663 19.3797 41.7455 17.9807 42.7765 16.9489C43.8083 15.9179 45.2072 15.3388 46.6659 15.3388C48.1245 15.3388 49.5234 15.9179 50.5552 16.9489ZM27.422 11.6688C28.6252 11.6691 29.8164 11.9064 30.9279 12.3671C32.0393 12.8279 33.049 13.5031 33.8995 14.3541C37.4799 17.9326 37.4799 23.7383 33.8995 27.3168C32.1796 29.0353 29.8476 30.0007 27.4162 30.0007C24.9848 30.0007 22.6529 29.0353 20.933 27.3168C17.3535 23.7373 17.3535 17.9326 20.933 14.3531C21.7835 13.5023 22.7933 12.8273 23.9047 12.3667C25.0161 11.9061 26.2074 11.669 27.4105 11.6688H27.422ZM31.3056 16.947C32.3369 17.9788 32.9163 19.378 32.9163 20.8369C32.9163 22.2957 32.3369 23.6949 31.3056 24.7267C30.2738 25.7578 28.8749 26.3369 27.4162 26.3369C25.9576 26.3369 24.5587 25.7578 23.5269 24.7267C22.4958 23.6949 21.9167 22.296 21.9167 20.8374C21.9167 19.3787 22.4958 17.9798 23.5269 16.948C24.5587 15.917 25.9576 15.3378 27.4162 15.3378C28.8749 15.3378 30.2738 15.917 31.3056 16.948V16.947Z" fill="#E6E6E6"/>
</g>
<defs>
<clipPath id="clip0_92_36099">
<rect width="81.6666" height="40" fill="white" transform="translate(0.833496)"/>
</clipPath>
</defs>
</svg>
