<svg width="31" height="30" viewBox="0 0 31 30" fill="none" xmlns="http://www.w3.org/2000/svg">
<path fill-rule="evenodd" clip-rule="evenodd" d="M14.9247 27.9388C14.9624 27.9607 14.9921 27.9776 15.0131 27.9894L15.048 28.0089C15.3266 28.1618 15.6722 28.1606 15.9511 28.0094L15.9869 27.9894C16.0079 27.9776 16.0376 27.9607 16.0753 27.9388C16.1508 27.8951 16.2587 27.8313 16.3944 27.7477C16.6656 27.5807 17.0484 27.3345 17.5058 27.0114C18.4189 26.3664 19.6372 25.4093 20.8582 24.1592C23.2883 21.671 25.8125 17.9327 25.8125 13.125C25.8125 7.42956 21.1954 2.8125 15.5 2.8125C9.80456 2.8125 5.1875 7.42956 5.1875 13.125C5.1875 17.9327 7.71165 21.671 10.1418 24.1592C11.3628 25.4093 12.5811 26.3664 13.4942 27.0114C13.9516 27.3345 14.3344 27.5807 14.6056 27.7477C14.7413 27.8313 14.8492 27.8951 14.9247 27.9388ZM15.5 16.875C17.5711 16.875 19.25 15.1961 19.25 13.125C19.25 11.0539 17.5711 9.375 15.5 9.375C13.4289 9.375 11.75 11.0539 11.75 13.125C11.75 15.1961 13.4289 16.875 15.5 16.875Z" fill="#3300FF"/>
</svg>
