<svg width="31" height="30" viewBox="0 0 31 30" fill="none" xmlns="http://www.w3.org/2000/svg">
<path fill-rule="evenodd" clip-rule="evenodd" d="M2.375 5.625C2.375 3.55393 4.05393 1.875 6.125 1.875H7.83953C8.915 1.875 9.85246 2.60695 10.1133 3.65031L11.4955 9.17929C11.7243 10.0941 11.3824 11.0569 10.628 11.6227L9.011 12.8355C8.84309 12.9614 8.80658 13.1458 8.85375 13.2746C10.2731 17.1494 13.3506 20.2269 17.2254 21.6462C17.3542 21.6934 17.5386 21.6569 17.6645 21.489L18.8773 19.872C19.4431 19.1176 20.4059 18.7757 21.3207 19.0045L26.8497 20.3867C27.8931 20.6475 28.625 21.585 28.625 22.6605V24.375C28.625 26.4461 26.9461 28.125 24.875 28.125H22.0625C11.1894 28.125 2.375 19.3106 2.375 8.4375V5.625Z" fill="#3300FF"/>
</svg>
