<svg width="28" height="28" viewBox="0 0 28 28" fill="none" xmlns="http://www.w3.org/2000/svg">
<path d="M14 0C6.2685 0 0 6.2685 0 14C0 21.7315 6.2685 28 14 28C21.7315 28 28 21.7315 28 14C28 6.2685 21.7315 0 14 0ZM20.8763 9.59117L18.578 20.4178C18.4088 21.1855 17.9515 21.3722 17.3133 21.0105L13.8133 18.4322L12.1263 20.0585C11.963 20.2685 11.7098 20.4027 11.4263 20.4027C11.424 20.4027 11.4228 20.4027 11.4205 20.4027L11.669 16.8397L18.1557 10.9807C18.4357 10.7322 18.0927 10.591 17.7205 10.8395L9.70667 15.8865L6.25333 14.8085C5.50667 14.5717 5.48567 14.0618 6.41083 13.6955L19.9045 8.4945C20.5322 8.26583 21.0782 8.64383 20.8752 9.59233L20.8763 9.59117Z" fill="#3300FF"/>
</svg>
