<svg width="92" height="40" viewBox="0 0 92 40" fill="none" xmlns="http://www.w3.org/2000/svg">
<g clip-path="url(#clip0_92_36109)">
<path fill-rule="evenodd" clip-rule="evenodd" d="M56.7778 31.505C51.4748 35.4137 43.7885 37.4991 37.1707 37.4991C27.8915 37.4991 19.5378 34.0671 13.218 28.3589C12.7214 27.9101 13.1663 27.2983 13.7622 27.6479C20.5825 31.6162 29.0156 34.0035 37.7268 34.0035C43.6018 34.0035 50.0647 32.788 56.0072 30.2656C56.9049 29.8843 57.6557 30.8535 56.7778 31.505Z" fill="#E6E6E6"/>
<path fill-rule="evenodd" clip-rule="evenodd" d="M58.9824 28.9826C58.3072 28.1167 54.5018 28.5735 52.7937 28.776C52.2733 28.8396 52.1939 28.3868 52.6626 28.061C55.6934 25.9279 60.6667 26.5436 61.2466 27.2586C61.8266 27.9776 61.0957 32.9628 58.2476 35.3422C57.8106 35.7076 57.3935 35.513 57.5882 35.0284C58.2277 33.4315 59.6617 29.8525 58.9824 28.9826Z" fill="#E6E6E6"/>
<path fill-rule="evenodd" clip-rule="evenodd" d="M52.9143 13.003V10.9295C52.9143 10.6157 53.1526 10.4052 53.4386 10.4052H62.7218C63.0197 10.4052 63.258 10.6197 63.258 10.9295V12.7051C63.2541 13.003 63.0038 13.3923 62.5589 14.008L57.7485 20.8761C59.536 20.8324 61.4228 21.0985 63.0435 22.0121C63.409 22.2187 63.5083 22.5206 63.5361 22.8185V25.031C63.5361 25.3329 63.2024 25.6865 62.8529 25.5037C59.9968 24.0062 56.2033 23.8433 53.0453 25.5196C52.7236 25.6944 52.3859 25.3449 52.3859 25.043V22.9416C52.3859 22.604 52.3899 22.028 52.7276 21.5156L58.3006 13.5234H53.4505C53.1526 13.5234 52.9143 13.3129 52.9143 13.003Z" fill="#E6E6E6"/>
<path fill-rule="evenodd" clip-rule="evenodd" d="M19.0507 25.9407H16.2264C15.9563 25.9209 15.7418 25.7183 15.7219 25.4601V10.9653C15.7219 10.6753 15.9642 10.4449 16.2661 10.4449H18.8997C19.1738 10.4568 19.3923 10.6674 19.4122 10.9295V12.8243H19.4638C20.151 10.9931 21.442 10.1391 23.1818 10.1391C24.9495 10.1391 26.0538 10.9931 26.8482 12.8243C27.5315 10.9931 29.0846 10.1391 30.749 10.1391C31.9327 10.1391 33.2277 10.6276 34.0182 11.724C34.9119 12.9435 34.7292 14.7151 34.7292 16.2683L34.7252 25.4164C34.7252 25.7064 34.4829 25.9407 34.181 25.9407H31.3607C31.0787 25.9209 30.8523 25.6944 30.8523 25.4164V17.734C30.8523 17.1223 30.9079 15.5969 30.7728 15.017C30.5623 14.0438 29.9307 13.7697 29.1124 13.7697C28.4292 13.7697 27.7142 14.2265 27.4242 14.9574C27.1342 15.6883 27.162 16.9118 27.162 17.734V25.4164C27.162 25.7064 26.9197 25.9407 26.6178 25.9407H23.7975C23.5115 25.9209 23.2891 25.6944 23.2891 25.4164L23.2851 17.734C23.2851 16.1173 23.5513 13.7379 21.5453 13.7379C19.5154 13.7379 19.5949 16.0577 19.5949 17.734V25.4164C19.5949 25.7064 19.3526 25.9407 19.0507 25.9407Z" fill="#E6E6E6"/>
<path fill-rule="evenodd" clip-rule="evenodd" d="M71.2501 10.1391C75.4408 10.1391 77.709 13.7379 77.709 18.314C77.709 22.7351 75.2025 26.2426 71.2501 26.2426C67.1348 26.2426 64.8945 22.6437 64.8945 18.1591C64.8945 13.6466 67.1627 10.1391 71.2501 10.1391ZM71.2739 13.0984C69.1925 13.0984 69.0614 15.9346 69.0614 17.7022C69.0614 19.4739 69.0336 23.2555 71.2501 23.2555C73.4388 23.2555 73.5421 20.2048 73.5421 18.3457C73.5421 17.1223 73.4905 15.6605 73.121 14.5006C72.8033 13.4916 72.1717 13.0984 71.2739 13.0984Z" fill="#E6E6E6"/>
<path fill-rule="evenodd" clip-rule="evenodd" d="M83.1432 25.9407H80.3308C80.0488 25.9209 79.8224 25.6944 79.8224 25.4164L79.8184 10.9176C79.8422 10.6515 80.0766 10.4449 80.3626 10.4449H82.9803C83.2266 10.4568 83.4292 10.6237 83.4848 10.8501V13.0666H83.5364C84.3269 11.0845 85.4352 10.1391 87.3856 10.1391C88.6527 10.1391 89.8881 10.5959 90.6825 11.8471C91.4214 13.007 91.4214 14.9574 91.4214 16.3596V25.4839C91.3896 25.7381 91.1552 25.9407 90.8772 25.9407H88.0449C87.7867 25.9209 87.5723 25.7302 87.5444 25.4839V17.6109C87.5444 16.026 87.7272 13.7061 85.7768 13.7061C85.0896 13.7061 84.458 14.1669 84.1442 14.866C83.747 15.7519 83.6953 16.6337 83.6953 17.6109V25.4164C83.6914 25.7064 83.4451 25.9407 83.1432 25.9407Z" fill="#E6E6E6"/>
<path fill-rule="evenodd" clip-rule="evenodd" d="M45.5139 19.017C45.5139 20.1174 45.5418 21.0349 44.9856 22.0121C44.5368 22.8066 43.8218 23.2952 43.0313 23.2952C41.9469 23.2952 41.3113 22.4689 41.3113 21.2495C41.3113 18.8423 43.4682 18.4053 45.5139 18.4053V19.017ZM48.3621 25.901C48.1754 26.0678 47.9052 26.0797 47.6947 25.9685C46.7573 25.1899 46.5865 24.8285 46.074 24.0856C44.5249 25.6666 43.4245 26.1393 41.4185 26.1393C39.0392 26.1393 37.1921 24.6735 37.1921 21.738C37.1921 19.446 38.4314 17.8849 40.203 17.1223C41.7363 16.447 43.8774 16.3278 45.5139 16.1411V15.7757C45.5139 15.1044 45.5656 14.3099 45.1684 13.73C44.8267 13.2096 44.1673 12.9951 43.5834 12.9951C42.5069 12.9951 41.5496 13.5472 41.3153 14.6912C41.2676 14.9455 41.0809 15.1957 40.8227 15.2076L38.0858 14.9137C37.8554 14.8621 37.5972 14.6754 37.6648 14.3218C38.2924 11.001 41.2954 10 43.9807 10C45.3551 10 47.1505 10.3654 48.2349 11.4062C49.6093 12.6892 49.4783 14.4013 49.4783 16.2643V20.6655C49.4783 21.9883 50.0264 22.5682 50.5428 23.2833C50.7216 23.5375 50.7613 23.8433 50.5309 24.034C49.9549 24.5147 48.9301 25.4084 48.366 25.9089L48.3621 25.901Z" fill="#E6E6E6"/>
<path fill-rule="evenodd" clip-rule="evenodd" d="M8.48839 19.017C8.48839 20.1173 8.5162 21.0349 7.96008 22.0121C7.51121 22.8066 6.80018 23.2952 6.00573 23.2952C4.9213 23.2952 4.28971 22.4689 4.28971 21.2494C4.28971 18.8423 6.44665 18.4053 8.48839 18.4053V19.017ZM11.3365 25.901C11.1498 26.0678 10.8797 26.0797 10.6692 25.9685C9.73171 25.1899 9.56487 24.8285 9.04848 24.0856C7.4993 25.6666 6.40296 26.1393 4.39299 26.1393C2.01758 26.1393 0.166504 24.6735 0.166504 21.738C0.166504 19.446 1.40982 17.8849 3.17748 17.1223C4.71077 16.447 6.85182 16.3278 8.48839 16.1411V15.7757C8.48839 15.1044 8.54003 14.3099 8.14678 13.73C7.80119 13.2096 7.1418 12.9951 6.56184 12.9951C5.48536 12.9951 4.52407 13.5472 4.28971 14.6912C4.24204 14.9455 4.05535 15.1957 3.80112 15.2076L1.06026 14.9137C0.829871 14.862 0.575646 14.6754 0.639202 14.3218C1.27079 11.001 4.26985 10 6.9551 10C8.3295 10 10.125 10.3654 11.2094 11.4062C12.5838 12.6892 12.4527 14.4013 12.4527 16.2643V20.6655C12.4527 21.9883 13.0009 22.5682 13.5173 23.2832C13.7 23.5375 13.7397 23.8433 13.5093 24.034C12.9333 24.5146 11.9085 25.4084 11.3444 25.9089L11.3365 25.901Z" fill="#E6E6E6"/>
</g>
<defs>
<clipPath id="clip0_92_36109">
<rect width="91.6666" height="40" fill="white" transform="translate(0.166504)"/>
</clipPath>
</defs>
</svg>
